<svg xmlns="http://www.w3.org/2000/svg" version="1.1" xmlns:xlink="http://www.w3.org/1999/xlink" xmlns:svgjs="http://svgjs.dev/svgjs" viewBox="0 0 800 800" opacity="0.55" width="800" height="800"><g stroke-width="0.75" stroke="hsla(261, 12%, 80%, 1.00)" fill="none"><rect width="66.66666666666667" height="1.631578947368421" x="-33.333333333333336" y="-0.8157894736842105" stroke="none" fill="hsla(316, 2%, 59%, 1.00)" rx="0.8157894736842105"></rect><rect width="1.631578947368421" height="66.66666666666667" x="-0.8157894736842105" y="-33.333333333333336" stroke="none" fill="hsla(316, 2%, 59%, 1.00)" rx="0.8157894736842105"></rect><rect width="66.66666666666667" height="1.631578947368421" x="100" y="-0.8157894736842105" stroke="none" fill="hsla(261, 12%, 80%, 1.00)" rx="0.8157894736842105"></rect><rect width="1.631578947368421" height="66.66666666666667" x="132.51754385964912" y="-33.333333333333336" stroke="none" fill="hsla(261, 12%, 80%, 1.00)" rx="0.8157894736842105"></rect><rect width="66.66666666666667" height="1.631578947368421" x="233.33333333333334" y="-0.8157894736842105" stroke="none" fill="hsla(316, 2%, 59%, 1.00)" rx="0.8157894736842105"></rect><rect width="1.631578947368421" height="66.66666666666667" x="265.85087719298247" y="-33.333333333333336" stroke="none" fill="hsla(316, 2%, 59%, 1.00)" rx="0.8157894736842105"></rect><rect width="66.66666666666667" height="1.631578947368421" x="366.6666666666667" y="-0.8157894736842105" stroke="none" fill="hsla(261, 12%, 80%, 1.00)" rx="0.8157894736842105"></rect><rect width="1.631578947368421" height="66.66666666666667" x="399.1842105263158" y="-33.333333333333336" stroke="none" fill="hsla(261, 12%, 80%, 1.00)" rx="0.8157894736842105"></rect><rect width="66.66666666666667" height="1.631578947368421" x="500.00000000000006" y="-0.8157894736842105" stroke="none" fill="hsla(316, 2%, 59%, 1.00)" rx="0.8157894736842105"></rect><rect width="1.631578947368421" height="66.66666666666667" x="532.5175438596492" y="-33.333333333333336" stroke="none" fill="hsla(316, 2%, 59%, 1.00)" rx="0.8157894736842105"></rect><rect width="66.66666666666667" height="1.631578947368421" x="633.3333333333334" y="-0.8157894736842105" stroke="none" fill="hsla(261, 12%, 80%, 1.00)" rx="0.8157894736842105"></rect><rect width="1.631578947368421" height="66.66666666666667" x="665.8508771929826" y="-33.333333333333336" stroke="none" fill="hsla(261, 12%, 80%, 1.00)" rx="0.8157894736842105"></rect><rect width="66.66666666666667" height="1.631578947368421" x="766.6666666666667" y="-0.8157894736842105" stroke="none" fill="hsla(316, 2%, 59%, 1.00)" rx="0.8157894736842105"></rect><rect width="1.631578947368421" height="66.66666666666667" x="799.184210526316" y="-33.333333333333336" stroke="none" fill="hsla(316, 2%, 59%, 1.00)" rx="0.8157894736842105"></rect><rect width="66.66666666666667" height="1.631578947368421" x="-33.333333333333336" y="132.51754385964912" stroke="none" fill="hsla(261, 12%, 80%, 1.00)" rx="0.8157894736842105"></rect><rect width="1.631578947368421" height="66.66666666666667" x="-0.8157894736842105" y="100" stroke="none" fill="hsla(261, 12%, 80%, 1.00)" rx="0.8157894736842105"></rect><rect width="66.66666666666667" height="1.631578947368421" x="100" y="132.51754385964912" stroke="none" fill="hsla(316, 2%, 59%, 1.00)" rx="0.8157894736842105"></rect><rect width="1.631578947368421" height="66.66666666666667" x="132.51754385964912" y="100" stroke="none" fill="hsla(316, 2%, 59%, 1.00)" rx="0.8157894736842105"></rect><rect width="66.66666666666667" height="1.631578947368421" x="233.33333333333334" y="132.51754385964912" stroke="none" fill="hsla(261, 12%, 80%, 1.00)" rx="0.8157894736842105"></rect><rect width="1.631578947368421" height="66.66666666666667" x="265.85087719298247" y="100" stroke="none" fill="hsla(261, 12%, 80%, 1.00)" rx="0.8157894736842105"></rect><rect width="66.66666666666667" height="1.631578947368421" x="366.6666666666667" y="132.51754385964912" stroke="none" fill="hsla(316, 2%, 59%, 1.00)" rx="0.8157894736842105"></rect><rect width="1.631578947368421" height="66.66666666666667" x="399.1842105263158" y="100" stroke="none" fill="hsla(316, 2%, 59%, 1.00)" rx="0.8157894736842105"></rect><rect width="66.66666666666667" height="1.631578947368421" x="500.00000000000006" y="132.51754385964912" stroke="none" fill="hsla(261, 12%, 80%, 1.00)" rx="0.8157894736842105"></rect><rect width="1.631578947368421" height="66.66666666666667" x="532.5175438596492" y="100" stroke="none" fill="hsla(261, 12%, 80%, 1.00)" rx="0.8157894736842105"></rect><rect width="66.66666666666667" height="1.631578947368421" x="633.3333333333334" y="132.51754385964912" stroke="none" fill="hsla(316, 2%, 59%, 1.00)" rx="0.8157894736842105"></rect><rect width="1.631578947368421" height="66.66666666666667" x="665.8508771929826" y="100" stroke="none" fill="hsla(316, 2%, 59%, 1.00)" rx="0.8157894736842105"></rect><rect width="66.66666666666667" height="1.631578947368421" x="766.6666666666667" y="132.51754385964912" stroke="none" fill="hsla(261, 12%, 80%, 1.00)" rx="0.8157894736842105"></rect><rect width="1.631578947368421" height="66.66666666666667" x="799.184210526316" y="100" stroke="none" fill="hsla(261, 12%, 80%, 1.00)" rx="0.8157894736842105"></rect><rect width="66.66666666666667" height="1.631578947368421" x="-33.333333333333336" y="265.85087719298247" stroke="none" fill="hsla(316, 2%, 59%, 1.00)" rx="0.8157894736842105"></rect><rect width="1.631578947368421" height="66.66666666666667" x="-0.8157894736842105" y="233.33333333333334" stroke="none" fill="hsla(316, 2%, 59%, 1.00)" rx="0.8157894736842105"></rect><rect width="66.66666666666667" height="1.631578947368421" x="100" y="265.85087719298247" stroke="none" fill="hsla(261, 12%, 80%, 1.00)" rx="0.8157894736842105"></rect><rect width="1.631578947368421" height="66.66666666666667" x="132.51754385964912" y="233.33333333333334" stroke="none" fill="hsla(261, 12%, 80%, 1.00)" rx="0.8157894736842105"></rect><rect width="66.66666666666667" height="1.631578947368421" x="233.33333333333334" y="265.85087719298247" stroke="none" fill="hsla(316, 2%, 59%, 1.00)" rx="0.8157894736842105"></rect><rect width="1.631578947368421" height="66.66666666666667" x="265.85087719298247" y="233.33333333333334" stroke="none" fill="hsla(316, 2%, 59%, 1.00)" rx="0.8157894736842105"></rect><rect width="66.66666666666667" height="1.631578947368421" x="366.6666666666667" y="265.85087719298247" stroke="none" fill="hsla(261, 12%, 80%, 1.00)" rx="0.8157894736842105"></rect><rect width="1.631578947368421" height="66.66666666666667" x="399.1842105263158" y="233.33333333333334" stroke="none" fill="hsla(261, 12%, 80%, 1.00)" rx="0.8157894736842105"></rect><rect width="66.66666666666667" height="1.631578947368421" x="500.00000000000006" y="265.85087719298247" stroke="none" fill="hsla(316, 2%, 59%, 1.00)" rx="0.8157894736842105"></rect><rect width="1.631578947368421" height="66.66666666666667" x="532.5175438596492" y="233.33333333333334" stroke="none" fill="hsla(316, 2%, 59%, 1.00)" rx="0.8157894736842105"></rect><rect width="66.66666666666667" height="1.631578947368421" x="633.3333333333334" y="265.85087719298247" stroke="none" fill="hsla(261, 12%, 80%, 1.00)" rx="0.8157894736842105"></rect><rect width="1.631578947368421" height="66.66666666666667" x="665.8508771929826" y="233.33333333333334" stroke="none" fill="hsla(261, 12%, 80%, 1.00)" rx="0.8157894736842105"></rect><rect width="66.66666666666667" height="1.631578947368421" x="766.6666666666667" y="265.85087719298247" stroke="none" fill="hsla(316, 2%, 59%, 1.00)" rx="0.8157894736842105"></rect><rect width="1.631578947368421" height="66.66666666666667" x="799.184210526316" y="233.33333333333334" stroke="none" fill="hsla(316, 2%, 59%, 1.00)" rx="0.8157894736842105"></rect><rect width="66.66666666666667" height="1.631578947368421" x="-33.333333333333336" y="399.1842105263158" stroke="none" fill="hsla(261, 12%, 80%, 1.00)" rx="0.8157894736842105"></rect><rect width="1.631578947368421" height="66.66666666666667" x="-0.8157894736842105" y="366.6666666666667" stroke="none" fill="hsla(261, 12%, 80%, 1.00)" rx="0.8157894736842105"></rect><rect width="66.66666666666667" height="1.631578947368421" x="100" y="399.1842105263158" stroke="none" fill="hsla(316, 2%, 59%, 1.00)" rx="0.8157894736842105"></rect><rect width="1.631578947368421" height="66.66666666666667" x="132.51754385964912" y="366.6666666666667" stroke="none" fill="hsla(316, 2%, 59%, 1.00)" rx="0.8157894736842105"></rect><rect width="66.66666666666667" height="1.631578947368421" x="233.33333333333334" y="399.1842105263158" stroke="none" fill="hsla(261, 12%, 80%, 1.00)" rx="0.8157894736842105"></rect><rect width="1.631578947368421" height="66.66666666666667" x="265.85087719298247" y="366.6666666666667" stroke="none" fill="hsla(261, 12%, 80%, 1.00)" rx="0.8157894736842105"></rect><rect width="66.66666666666667" height="1.631578947368421" x="366.6666666666667" y="399.1842105263158" stroke="none" fill="hsla(316, 2%, 59%, 1.00)" rx="0.8157894736842105"></rect><rect width="1.631578947368421" height="66.66666666666667" x="399.1842105263158" y="366.6666666666667" stroke="none" fill="hsla(316, 2%, 59%, 1.00)" rx="0.8157894736842105"></rect><rect width="66.66666666666667" height="1.631578947368421" x="500.00000000000006" y="399.1842105263158" stroke="none" fill="hsla(261, 12%, 80%, 1.00)" rx="0.8157894736842105"></rect><rect width="1.631578947368421" height="66.66666666666667" x="532.5175438596492" y="366.6666666666667" stroke="none" fill="hsla(261, 12%, 80%, 1.00)" rx="0.8157894736842105"></rect><rect width="66.66666666666667" height="1.631578947368421" x="633.3333333333334" y="399.1842105263158" stroke="none" fill="hsla(316, 2%, 59%, 1.00)" rx="0.8157894736842105"></rect><rect width="1.631578947368421" height="66.66666666666667" x="665.8508771929826" y="366.6666666666667" stroke="none" fill="hsla(316, 2%, 59%, 1.00)" rx="0.8157894736842105"></rect><rect width="66.66666666666667" height="1.631578947368421" x="766.6666666666667" y="399.1842105263158" stroke="none" fill="hsla(261, 12%, 80%, 1.00)" rx="0.8157894736842105"></rect><rect width="1.631578947368421" height="66.66666666666667" x="799.184210526316" y="366.6666666666667" stroke="none" fill="hsla(261, 12%, 80%, 1.00)" rx="0.8157894736842105"></rect><rect width="66.66666666666667" height="1.631578947368421" x="-33.333333333333336" y="532.5175438596492" stroke="none" fill="hsla(316, 2%, 59%, 1.00)" rx="0.8157894736842105"></rect><rect width="1.631578947368421" height="66.66666666666667" x="-0.8157894736842105" y="500.00000000000006" stroke="none" fill="hsla(316, 2%, 59%, 1.00)" rx="0.8157894736842105"></rect><rect width="66.66666666666667" height="1.631578947368421" x="100" y="532.5175438596492" stroke="none" fill="hsla(261, 12%, 80%, 1.00)" rx="0.8157894736842105"></rect><rect width="1.631578947368421" height="66.66666666666667" x="132.51754385964912" y="500.00000000000006" stroke="none" fill="hsla(261, 12%, 80%, 1.00)" rx="0.8157894736842105"></rect><rect width="66.66666666666667" height="1.631578947368421" x="233.33333333333334" y="532.5175438596492" stroke="none" fill="hsla(316, 2%, 59%, 1.00)" rx="0.8157894736842105"></rect><rect width="1.631578947368421" height="66.66666666666667" x="265.85087719298247" y="500.00000000000006" stroke="none" fill="hsla(316, 2%, 59%, 1.00)" rx="0.8157894736842105"></rect><rect width="66.66666666666667" height="1.631578947368421" x="366.6666666666667" y="532.5175438596492" stroke="none" fill="hsla(261, 12%, 80%, 1.00)" rx="0.8157894736842105"></rect><rect width="1.631578947368421" height="66.66666666666667" x="399.1842105263158" y="500.00000000000006" stroke="none" fill="hsla(261, 12%, 80%, 1.00)" rx="0.8157894736842105"></rect><rect width="66.66666666666667" height="1.631578947368421" x="500.00000000000006" y="532.5175438596492" stroke="none" fill="hsla(316, 2%, 59%, 1.00)" rx="0.8157894736842105"></rect><rect width="1.631578947368421" height="66.66666666666667" x="532.5175438596492" y="500.00000000000006" stroke="none" fill="hsla(316, 2%, 59%, 1.00)" rx="0.8157894736842105"></rect><rect width="66.66666666666667" height="1.631578947368421" x="633.3333333333334" y="532.5175438596492" stroke="none" fill="hsla(261, 12%, 80%, 1.00)" rx="0.8157894736842105"></rect><rect width="1.631578947368421" height="66.66666666666667" x="665.8508771929826" y="500.00000000000006" stroke="none" fill="hsla(261, 12%, 80%, 1.00)" rx="0.8157894736842105"></rect><rect width="66.66666666666667" height="1.631578947368421" x="766.6666666666667" y="532.5175438596492" stroke="none" fill="hsla(316, 2%, 59%, 1.00)" rx="0.8157894736842105"></rect><rect width="1.631578947368421" height="66.66666666666667" x="799.184210526316" y="500.00000000000006" stroke="none" fill="hsla(316, 2%, 59%, 1.00)" rx="0.8157894736842105"></rect><rect width="66.66666666666667" height="1.631578947368421" x="-33.333333333333336" y="665.8508771929826" stroke="none" fill="hsla(261, 12%, 80%, 1.00)" rx="0.8157894736842105"></rect><rect width="1.631578947368421" height="66.66666666666667" x="-0.8157894736842105" y="633.3333333333334" stroke="none" fill="hsla(261, 12%, 80%, 1.00)" rx="0.8157894736842105"></rect><rect width="66.66666666666667" height="1.631578947368421" x="100" y="665.8508771929826" stroke="none" fill="hsla(316, 2%, 59%, 1.00)" rx="0.8157894736842105"></rect><rect width="1.631578947368421" height="66.66666666666667" x="132.51754385964912" y="633.3333333333334" stroke="none" fill="hsla(316, 2%, 59%, 1.00)" rx="0.8157894736842105"></rect><rect width="66.66666666666667" height="1.631578947368421" x="233.33333333333334" y="665.8508771929826" stroke="none" fill="hsla(261, 12%, 80%, 1.00)" rx="0.8157894736842105"></rect><rect width="1.631578947368421" height="66.66666666666667" x="265.85087719298247" y="633.3333333333334" stroke="none" fill="hsla(261, 12%, 80%, 1.00)" rx="0.8157894736842105"></rect><rect width="66.66666666666667" height="1.631578947368421" x="366.6666666666667" y="665.8508771929826" stroke="none" fill="hsla(316, 2%, 59%, 1.00)" rx="0.8157894736842105"></rect><rect width="1.631578947368421" height="66.66666666666667" x="399.1842105263158" y="633.3333333333334" stroke="none" fill="hsla(316, 2%, 59%, 1.00)" rx="0.8157894736842105"></rect><rect width="66.66666666666667" height="1.631578947368421" x="500.00000000000006" y="665.8508771929826" stroke="none" fill="hsla(261, 12%, 80%, 1.00)" rx="0.8157894736842105"></rect><rect width="1.631578947368421" height="66.66666666666667" x="532.5175438596492" y="633.3333333333334" stroke="none" fill="hsla(261, 12%, 80%, 1.00)" rx="0.8157894736842105"></rect><rect width="66.66666666666667" height="1.631578947368421" x="633.3333333333334" y="665.8508771929826" stroke="none" fill="hsla(316, 2%, 59%, 1.00)" rx="0.8157894736842105"></rect><rect width="1.631578947368421" height="66.66666666666667" x="665.8508771929826" y="633.3333333333334" stroke="none" fill="hsla(316, 2%, 59%, 1.00)" rx="0.8157894736842105"></rect><rect width="66.66666666666667" height="1.631578947368421" x="766.6666666666667" y="665.8508771929826" stroke="none" fill="hsla(261, 12%, 80%, 1.00)" rx="0.8157894736842105"></rect><rect width="1.631578947368421" height="66.66666666666667" x="799.184210526316" y="633.3333333333334" stroke="none" fill="hsla(261, 12%, 80%, 1.00)" rx="0.8157894736842105"></rect><rect width="66.66666666666667" height="1.631578947368421" x="-33.333333333333336" y="799.184210526316" stroke="none" fill="hsla(316, 2%, 59%, 1.00)" rx="0.8157894736842105"></rect><rect width="1.631578947368421" height="66.66666666666667" x="-0.8157894736842105" y="766.6666666666667" stroke="none" fill="hsla(316, 2%, 59%, 1.00)" rx="0.8157894736842105"></rect><rect width="66.66666666666667" height="1.631578947368421" x="100" y="799.184210526316" stroke="none" fill="hsla(261, 12%, 80%, 1.00)" rx="0.8157894736842105"></rect><rect width="1.631578947368421" height="66.66666666666667" x="132.51754385964912" y="766.6666666666667" stroke="none" fill="hsla(261, 12%, 80%, 1.00)" rx="0.8157894736842105"></rect><rect width="66.66666666666667" height="1.631578947368421" x="233.33333333333334" y="799.184210526316" stroke="none" fill="hsla(316, 2%, 59%, 1.00)" rx="0.8157894736842105"></rect><rect width="1.631578947368421" height="66.66666666666667" x="265.85087719298247" y="766.6666666666667" stroke="none" fill="hsla(316, 2%, 59%, 1.00)" rx="0.8157894736842105"></rect><rect width="66.66666666666667" height="1.631578947368421" x="366.6666666666667" y="799.184210526316" stroke="none" fill="hsla(261, 12%, 80%, 1.00)" rx="0.8157894736842105"></rect><rect width="1.631578947368421" height="66.66666666666667" x="399.1842105263158" y="766.6666666666667" stroke="none" fill="hsla(261, 12%, 80%, 1.00)" rx="0.8157894736842105"></rect><rect width="66.66666666666667" height="1.631578947368421" x="500.00000000000006" y="799.184210526316" stroke="none" fill="hsla(316, 2%, 59%, 1.00)" rx="0.8157894736842105"></rect><rect width="1.631578947368421" height="66.66666666666667" x="532.5175438596492" y="766.6666666666667" stroke="none" fill="hsla(316, 2%, 59%, 1.00)" rx="0.8157894736842105"></rect><rect width="66.66666666666667" height="1.631578947368421" x="633.3333333333334" y="799.184210526316" stroke="none" fill="hsla(261, 12%, 80%, 1.00)" rx="0.8157894736842105"></rect><rect width="1.631578947368421" height="66.66666666666667" x="665.8508771929826" y="766.6666666666667" stroke="none" fill="hsla(261, 12%, 80%, 1.00)" rx="0.8157894736842105"></rect><rect width="66.66666666666667" height="1.631578947368421" x="766.6666666666667" y="799.184210526316" stroke="none" fill="hsla(316, 2%, 59%, 1.00)" rx="0.8157894736842105"></rect><rect width="1.631578947368421" height="66.66666666666667" x="799.184210526316" y="766.6666666666667" stroke="none" fill="hsla(316, 2%, 59%, 1.00)" rx="0.8157894736842105"></rect></g></svg>