<svg xmlns="http://www.w3.org/2000/svg" version="1.1" xmlns:xlink="http://www.w3.org/1999/xlink" xmlns:svgjs="http://svgjs.dev/svgjs" viewBox="0 0 800 800" opacity="0.21" width="800" height="800"><g stroke-width="1.5" stroke="#1e1e1e" fill="none"><circle r="1.763157894736842" cx="0" cy="0" fill="#1e1e1e" stroke="none"></circle><circle r="1.763157894736842" cx="80" cy="0" fill="#1e1e1e" stroke="none"></circle><circle r="1.763157894736842" cx="320" cy="0" fill="#1e1e1e" stroke="none"></circle><circle r="1.763157894736842" cx="480" cy="0" fill="#1e1e1e" stroke="none"></circle><circle r="1.763157894736842" cx="640" cy="0" fill="#1e1e1e" stroke="none"></circle><circle r="1.763157894736842" cx="800" cy="0" fill="#1e1e1e" stroke="none"></circle><circle r="1.763157894736842" cx="0" cy="160" fill="#1e1e1e" stroke="none"></circle><circle r="1.763157894736842" cx="160" cy="160" fill="#1e1e1e" stroke="none"></circle><circle r="1.763157894736842" cx="320" cy="160" fill="#1e1e1e" stroke="none"></circle><circle r="1.763157894736842" cx="480" cy="160" fill="#1e1e1e" stroke="none"></circle><circle r="1.763157894736842" cx="640" cy="160" fill="#ebebeb" stroke="none"></circle><circle r="1.763157894736842" cx="800" cy="160" fill="#1e1e1e" stroke="none"></circle><circle r="1.763157894736842" cx="0" cy="320" fill="#1e1e1e" stroke="none"></circle><circle r="1.763157894736842" cx="160" cy="320" fill="#1e1e1e" stroke="none"></circle><circle r="1.763157894736842" cx="320" cy="320" fill="#1e1e1e" stroke="none"></circle><circle r="1.763157894736842" cx="480" cy="320" fill="#1e1e1e" stroke="none"></circle><circle r="1.763157894736842" cx="640" cy="320" fill="#1e1e1e" stroke="none"></circle><circle r="1.763157894736842" cx="800" cy="320" fill="#1e1e1e" stroke="none"></circle><circle r="1.763157894736842" cx="0" cy="480" fill="#1e1e1e" stroke="none"></circle><circle r="1.763157894736842" cx="160" cy="480" fill="#1e1e1e" stroke="none"></circle><circle r="1.763157894736842" cx="320" cy="480" fill="#1e1e1e" stroke="none"></circle><circle r="1.763157894736842" cx="480" cy="480" fill="#1e1e1e" stroke="none"></circle><circle r="1.763157894736842" cx="640" cy="480" fill="#1e1e1e" stroke="none"></circle><circle r="1.763157894736842" cx="800" cy="480" fill="#1e1e1e" stroke="none"></circle><circle r="1.763157894736842" cx="0" cy="640" fill="#1e1e1e" stroke="none"></circle><circle r="1.763157894736842" cx="160" cy="640" fill="#1e1e1e" stroke="none"></circle><circle r="1.763157894736842" cx="320" cy="640" fill="#1e1e1e" stroke="none"></circle><circle r="1.763157894736842" cx="480" cy="640" fill="#1e1e1e" stroke="none"></circle><circle r="1.763157894736842" cx="640" cy="640" fill="#1e1e1e" stroke="none"></circle><circle r="1.763157894736842" cx="800" cy="640" fill="#1e1e1e" stroke="none"></circle><circle r="1.763157894736842" cx="0" cy="800" fill="#1e1e1e" stroke="none"></circle><circle r="1.763157894736842" cx="160" cy="800" fill="#1e1e1e" stroke="none"></circle><circle r="1.763157894736842" cx="320" cy="800" fill="#1e1e1e" stroke="none"></circle><circle r="1.763157894736842" cx="480" cy="800" fill="#1e1e1e" stroke="none"></circle><circle r="1.763157894736842" cx="640" cy="800" fill="#1e1e1e" stroke="none"></circle><circle r="1.763157894736842" cx="60" cy="60" fill="#1e1e1e" stroke="none"></circle></g></svg>